<svg width="57" height="57" viewBox="0 0 57 57" fill="none" xmlns="http://www.w3.org/2000/svg">
<mask id="mask0_4028_5598" style="mask-type:alpha" maskUnits="userSpaceOnUse" x="0" y="0" width="57" height="57">
<rect x="0.740234" y="0.0546875" width="56" height="56" rx="14" fill="#D9D9D9"/>
</mask>
<g mask="url(#mask0_4028_5598)">
<path d="M0.740234 5.45228C0.740234 2.47127 3.15682 0.0546875 6.13782 0.0546875H51.3426C54.3237 0.0546875 56.7402 2.47127 56.7402 5.45228V50.6571C56.7402 53.6381 54.3237 56.0547 51.3426 56.0547H6.13782C3.15682 56.0547 0.740234 53.6381 0.740234 50.6571V5.45228Z" fill="url(#paint0_linear_4028_5598)"/>
<path d="M43.2793 27.9214C43.2793 35.9734 36.7518 42.5008 28.6998 42.5008C20.6478 42.5008 14.1203 35.9734 14.1203 27.9214C14.1203 19.8693 20.6478 13.3419 28.6998 13.3419C36.7518 13.3419 43.2793 19.8693 43.2793 27.9214Z" fill="white"/>
<path d="M4.33863 26.9246C6.15852 26.5856 7.06846 25.6489 7.06846 24.1145C7.06846 23.4365 6.97925 22.2767 6.80083 20.6353C6.62241 18.8867 6.5332 17.62 6.5332 16.8349C6.5332 15.5503 6.89004 14.569 7.60372 13.891C8.33524 13.213 9.30763 12.874 10.5209 12.874C10.5209 12.874 11.5329 12.874 12.0732 12.874C12.8988 12.874 12.8988 14.9883 12.0732 14.9883C11.6454 14.9883 10.9759 14.9883 10.9759 14.9883C10.28 14.9883 9.76261 15.1488 9.42361 15.47C9.08461 15.7733 8.91511 16.2818 8.91511 16.9955C8.91511 17.5129 8.95079 18.1552 9.02216 18.9224C9.09353 19.6718 9.13813 20.1803 9.15598 20.4479C9.3344 22.1608 9.42361 23.4097 9.42361 24.1947C9.42361 25.1404 9.18274 25.9343 8.701 26.5767C8.23711 27.2011 7.51451 27.6204 6.5332 27.8345V27.888C7.51451 28.1021 8.23711 28.5304 8.701 29.1727C9.18274 29.815 9.42361 30.609 9.42361 31.5546C9.42361 32.3396 9.3344 33.5886 9.15598 35.3014C9.13813 35.569 9.09353 36.0865 9.02216 36.8537C8.95079 37.603 8.91511 38.2364 8.91511 38.7538C8.91511 39.4675 9.08461 39.976 9.42361 40.2793C9.76261 40.6005 10.28 40.7611 10.9759 40.7611C10.9759 40.7611 11.6454 40.7611 12.0732 40.7611C12.8988 40.7611 12.8988 42.8754 12.0732 42.8754C11.5329 42.8754 10.5209 42.8754 10.5209 42.8754C9.30763 42.8754 8.33524 42.5364 7.60372 41.8584C6.89004 41.1804 6.5332 40.1991 6.5332 38.9144C6.5332 38.1294 6.62241 36.8626 6.80083 35.1141C6.97925 33.4726 7.06846 32.3129 7.06846 31.6349C7.06846 30.1005 6.15852 29.1637 4.33863 28.8248C3.43903 28.6572 3.43903 27.0922 4.33863 26.9246Z" fill="white"/>
<path d="M53.1418 26.9246C51.322 26.5856 50.412 25.6489 50.412 24.1145C50.412 23.4365 50.5012 22.2767 50.6796 20.6353C50.8581 18.8867 50.9473 17.62 50.9473 16.8349C50.9473 15.5503 50.5904 14.569 49.8767 13.891C49.1452 13.213 48.1728 12.874 46.9596 12.874C46.9596 12.874 45.9475 12.874 45.4073 12.874C44.5816 12.874 44.5816 14.9883 45.4073 14.9883C45.8351 14.9883 46.5046 14.9883 46.5046 14.9883C47.2004 14.9883 47.7179 15.1488 48.0569 15.47C48.3959 15.7733 48.5654 16.2818 48.5654 16.9955C48.5654 17.5129 48.5297 18.1552 48.4583 18.9224C48.3869 19.6718 48.3423 20.1803 48.3245 20.4479C48.1461 22.1608 48.0569 23.4097 48.0569 24.1947C48.0569 25.1404 48.2977 25.9343 48.7795 26.5767C49.2434 27.2011 49.966 27.6204 50.9473 27.8345V27.888C49.966 28.1021 49.2434 28.5304 48.7795 29.1727C48.2977 29.815 48.0569 30.609 48.0569 31.5546C48.0569 32.3396 48.1461 33.5886 48.3245 35.3014C48.3423 35.569 48.3869 36.0865 48.4583 36.8537C48.5297 37.603 48.5654 38.2364 48.5654 38.7538C48.5654 39.4675 48.3959 39.976 48.0569 40.2793C47.7179 40.6005 47.2004 40.7611 46.5046 40.7611C46.5046 40.7611 45.8351 40.7611 45.4073 40.7611C44.5816 40.7611 44.5816 42.8754 45.4073 42.8754C45.9475 42.8754 46.9596 42.8754 46.9596 42.8754C48.1728 42.8754 49.1452 42.5364 49.8767 41.8584C50.5904 41.1804 50.9473 40.1991 50.9473 38.9144C50.9473 38.1294 50.8581 36.8626 50.6796 35.1141C50.5012 33.4726 50.412 32.3129 50.412 31.6349C50.412 30.1005 51.322 29.1637 53.1418 28.8248C54.0414 28.6572 54.0414 27.0922 53.1418 26.9246Z" fill="white"/>
<path d="M36.6224 24.0129C37.1836 24.2294 37.4341 24.4117 37.7439 25.1344C38.1089 25.9859 37.7753 27.5189 37.7459 27.6491C37.7444 27.6557 37.7433 27.661 37.7418 27.6676C37.7219 27.754 37.5543 28.4082 36.9028 29.0598C36.2383 29.7244 35.501 29.9009 34.6273 29.787C33.7719 29.6754 33.1208 29.0125 32.9451 28.3851C32.7817 27.8018 33.2681 26.9521 33.8187 26.5364C34.8896 25.728 35.0484 25.0072 35.2206 24.5738C35.4879 23.9012 36.0375 23.7872 36.6224 24.0129Z" fill="url(#paint1_linear_4028_5598)"/>
<path d="M30.9882 18.5136C31.5873 18.459 31.8926 18.5114 32.4907 19.0219C33.1952 19.6234 33.5757 21.1454 33.6071 21.2751C33.6086 21.2817 33.61 21.287 33.6115 21.2935C33.632 21.3798 33.7717 22.0406 33.4765 22.9134C33.1755 23.8037 32.5928 24.2888 31.7591 24.5738C30.9428 24.853 30.0654 24.5474 29.6298 24.0628C29.2248 23.6123 29.2842 22.6351 29.5936 22.0184C30.1952 20.8191 30.018 20.1025 29.9803 19.6378C29.9218 18.9164 30.3639 18.5705 30.9882 18.5136Z" fill="url(#paint2_linear_4028_5598)"/>
<path d="M26.2199 18.5587C25.6191 18.5288 25.3161 18.5937 24.7397 19.1285C24.0604 19.7585 23.743 21.2949 23.717 21.4258C23.7157 21.4324 23.7146 21.4377 23.7133 21.4444C23.6964 21.5314 23.584 22.1974 23.9149 23.0573C24.2524 23.9344 24.8546 24.3951 25.6992 24.6456C26.5263 24.8909 27.3904 24.5494 27.8057 24.0473C28.1918 23.5805 28.0922 22.6066 27.7577 22.0031C27.1072 20.8297 27.2547 20.1064 27.2732 19.6405C27.302 18.9172 26.846 18.5899 26.2199 18.5587Z" fill="url(#paint3_linear_4028_5598)"/>
<path d="M20.5854 24.0179C20.0242 24.2345 19.7737 24.4168 19.464 25.1395C19.099 25.991 19.4326 27.524 19.4619 27.6541C19.4634 27.6608 19.4646 27.666 19.4661 27.6726C19.486 27.7591 19.6536 28.4133 20.3051 29.0649C20.9696 29.7295 21.7069 29.906 22.5805 29.7921C23.436 29.6805 24.0871 29.0176 24.2628 28.3902C24.4261 27.8068 23.9398 26.9572 23.3891 26.5415C22.3182 25.7331 22.1594 25.0122 21.9872 24.5789C21.7199 23.9063 21.1704 23.7922 20.5854 24.0179Z" fill="url(#paint4_linear_4028_5598)"/>
<path d="M25.1003 29.7921C25.2635 28.8968 25.6505 28.4222 26.2199 28.1085C28.1184 27.0627 30.126 27.572 30.9862 28.103C31.7868 28.5972 31.8354 28.9322 32.1097 29.784C32.5611 31.2675 33.2334 31.7453 33.7945 32.025C35.4777 32.8642 35.4409 33.5213 35.1996 34.8272C34.8794 36.5597 32.7441 36.9893 31.5577 37.3547C30.3712 37.7201 27.6707 37.7998 26.3951 37.5871C25.4603 37.4313 24.5139 37.2484 23.7065 36.803C23.0305 36.4302 22.4935 35.6222 22.3024 34.842C22.0915 33.9809 22.3485 33.2006 22.5805 32.8791C23.0244 32.2639 23.421 32.3174 23.9814 32.0364C24.8454 31.6032 25.0231 30.0313 25.1003 29.7921Z" fill="url(#paint5_linear_4028_5598)"/>
</g>
<defs>
<linearGradient id="paint0_linear_4028_5598" x1="1.97718" y1="2.30368" x2="55.0535" y2="56.0547" gradientUnits="userSpaceOnUse">
<stop stop-color="#FF6AA0"/>
<stop offset="0.145" stop-color="#FF6AA0"/>
<stop offset="1" stop-color="#FDDAA6"/>
</linearGradient>
<linearGradient id="paint1_linear_4028_5598" x1="8.27437" y1="11.4121" x2="37.5113" y2="39.7495" gradientUnits="userSpaceOnUse">
<stop stop-color="#FF6AA0"/>
<stop offset="0.13" stop-color="#FF6AA0"/>
<stop offset="1" stop-color="#FDC7A2"/>
</linearGradient>
<linearGradient id="paint2_linear_4028_5598" x1="8.27437" y1="11.4121" x2="37.5113" y2="39.7495" gradientUnits="userSpaceOnUse">
<stop stop-color="#FF6AA0"/>
<stop offset="0.13" stop-color="#FF6AA0"/>
<stop offset="1" stop-color="#FDC7A2"/>
</linearGradient>
<linearGradient id="paint3_linear_4028_5598" x1="8.27437" y1="11.4121" x2="37.5113" y2="39.7495" gradientUnits="userSpaceOnUse">
<stop stop-color="#FF6AA0"/>
<stop offset="0.13" stop-color="#FF6AA0"/>
<stop offset="1" stop-color="#FDC7A2"/>
</linearGradient>
<linearGradient id="paint4_linear_4028_5598" x1="8.27437" y1="11.4121" x2="37.5113" y2="39.7495" gradientUnits="userSpaceOnUse">
<stop stop-color="#FF6AA0"/>
<stop offset="0.13" stop-color="#FF6AA0"/>
<stop offset="1" stop-color="#FDC7A2"/>
</linearGradient>
<linearGradient id="paint5_linear_4028_5598" x1="8.27437" y1="11.4121" x2="37.5113" y2="39.7495" gradientUnits="userSpaceOnUse">
<stop stop-color="#FF6AA0"/>
<stop offset="0.13" stop-color="#FF6AA0"/>
<stop offset="1" stop-color="#FDC7A2"/>
</linearGradient>
</defs>
</svg>
