<svg width="157" height="69" viewBox="0 0 157 69" fill="none" xmlns="http://www.w3.org/2000/svg">
<path d="M11.3032 68.2949H0.975586L0.984359 38.3023H3.54185V35.7729H6.10991V33.2435H8.67796V30.7141H11.2566V28.1847H13.8035V30.7141H26.6121V28.1742H29.164V15.5147H31.7269V12.9783H34.2939V10.4512H36.8608V7.91758H39.4238V10.4512H41.9756V33.2473H39.4236V35.7772H36.8514V40.8369H34.2894V43.3754H13.795V65.8443H11.3032V68.2949Z" fill="url(#paint0_linear_2446_5644)"/>
<path d="M0.975586 7.87478V33.2223H3.54698V30.6995H6.07067V28.1828H8.65445V25.6181H11.2262V23.1013H13.7786V12.9738H29.1616V10.4554H31.7014V7.9226H34.2844V5.37541H36.8675V2.857H31.7014V0.294922H8.61979V2.83794H6.06954V5.34809H3.5358V7.87478H0.975586Z" fill="url(#paint1_linear_2446_5644)"/>
<path d="M45.8438 19.1328H48.0803V21.3657H45.8438V19.1328ZM48.0803 19.1328H50.3168V21.3657H48.0803V19.1328ZM50.3168 19.1328H52.5533V21.3657H50.3168V19.1328ZM52.5533 19.1328H54.7899V21.3657H52.5533V19.1328ZM54.7899 19.1328H57.0264V21.3657H54.7899V19.1328ZM57.0264 19.1328H59.2629V21.3657H57.0264V19.1328ZM59.2629 19.1328H61.4995V21.3657H59.2629V19.1328ZM61.4995 19.1328H63.736V21.3657H61.4995V19.1328ZM61.4995 21.3657H63.736V23.5986H61.4995V21.3657ZM63.736 21.3657H65.9725V23.5986H63.736V21.3657ZM59.2629 21.3657H61.4995V23.5986H59.2629V21.3657ZM57.0264 21.3657H59.2629V23.5986H57.0264V21.3657ZM54.7899 21.3657H57.0264V23.5986H54.7899V21.3657ZM52.5533 21.3657H54.7899V23.5986H52.5533V21.3657ZM50.3168 21.3657H52.5533V23.5986H50.3168V21.3657ZM48.0803 21.3657H50.3168V23.5986H48.0803V21.3657ZM45.8438 21.3657H48.0803V23.5986H45.8438V21.3657ZM45.8438 23.5986H48.0803V25.8315H45.8438V23.5986ZM48.0803 23.5986H50.3168V25.8315H48.0803V23.5986ZM50.3168 23.5986H52.5533V25.8315H50.3168V23.5986ZM52.5533 23.5986H54.7899V25.8315H52.5533V23.5986ZM57.0264 23.5986H59.2629V25.8315H57.0264V23.5986ZM59.2629 23.5986H61.4995V25.8315H59.2629V23.5986ZM61.4995 23.5986H63.736V25.8315H61.4995V23.5986ZM63.736 23.5986H65.9725V25.8315H63.736V23.5986ZM65.9725 23.5986H68.209V25.8315H65.9725V23.5986ZM54.7899 23.5986H57.0264V25.8315H54.7899V23.5986ZM59.2629 25.8315H61.4995V28.0643H59.2629V25.8315ZM61.4995 25.8315H63.736V28.0643H61.4995V25.8315ZM65.9725 25.8315H68.209V28.0643H65.9725V25.8315ZM63.736 25.8315H65.9725V28.0643H63.736V25.8315ZM63.736 28.0643H65.9725V30.2972H63.736V28.0643ZM63.736 32.5301H65.9725V34.763H63.736V32.5301ZM65.9725 32.5301H68.209V34.763H65.9725V32.5301ZM65.9725 34.763H68.209V36.9959H65.9725V34.763ZM65.9725 28.0643H68.209V30.2972H65.9725V28.0643ZM61.4995 32.5301H63.736V34.763H61.4995V32.5301ZM61.4995 28.0643H63.736V30.2972H61.4995V28.0643ZM59.2629 32.5301H61.4995V34.763H59.2629V32.5301ZM61.4995 34.763H63.736V36.9959H61.4995V34.763ZM63.736 34.763H65.9725V36.9959H63.736V34.763ZM63.736 36.9959H65.9725V39.2287H63.736V36.9959ZM59.2629 39.2287H61.4995V41.4616H59.2629V39.2287ZM61.4995 39.2287H63.736V41.4616H61.4995V39.2287ZM61.4995 36.9959H63.736V39.2287H61.4995V36.9959ZM59.2629 36.9959H61.4995V39.2287H59.2629V36.9959ZM59.2629 34.763H61.4995V36.9959H59.2629V34.763ZM57.0264 39.2287H59.2629V41.4616H57.0264V39.2287ZM54.7899 39.2287H57.0264V41.4616H54.7899V39.2287ZM52.5533 39.2287H54.7899V41.4616H52.5533V39.2287ZM52.5533 36.9959H54.7899V39.2287H52.5533V36.9959ZM54.7899 36.9959H57.0264V39.2287H54.7899V36.9959ZM54.7899 34.763H57.0264V36.9959H54.7899V34.763ZM57.0264 34.763H59.2629V36.9959H57.0264V34.763ZM52.5533 34.763H54.7899V36.9959H52.5533V34.763ZM57.0264 36.9959H59.2629V39.2287H57.0264V36.9959ZM48.0803 25.8315H50.3168V28.0643H48.0803V25.8315ZM50.3168 25.8315H52.5533V28.0643H50.3168V25.8315ZM50.3168 28.0643H52.5533V30.2972H50.3168V28.0643ZM50.3168 30.2972H52.5533V32.5301H50.3168V30.2972ZM50.3168 32.5301H52.5533V34.763H50.3168V32.5301ZM48.0803 32.5301H50.3168V34.763H48.0803V32.5301ZM45.8438 32.5301H48.0803V34.763H45.8438V32.5301ZM45.8438 30.2972H48.0803V32.5301H45.8438V30.2972ZM45.8438 28.0643H48.0803V30.2972H45.8438V28.0643ZM45.8438 25.8315H48.0803V28.0643H45.8438V25.8315ZM48.0803 30.2972H50.3168V32.5301H48.0803V30.2972ZM48.0803 34.763H50.3168V36.9959H48.0803V34.763ZM48.0803 28.0643H50.3168V30.2972H48.0803V28.0643ZM45.8438 34.763H48.0803V36.9959H45.8438V34.763ZM45.8438 36.9959H48.0803V39.2287H45.8438V36.9959ZM48.0803 36.9959H50.3168V39.2287H48.0803V36.9959ZM50.3168 34.763H52.5533V36.9959H50.3168V34.763ZM50.3168 36.9959H52.5533V39.2287H50.3168V36.9959ZM50.3168 39.2287H52.5533V41.4616H50.3168V39.2287ZM50.3168 41.4616H52.5533V43.6945H50.3168V41.4616ZM50.3168 43.6945H52.5533V45.9274H50.3168V43.6945ZM50.3168 45.9274H52.5533V48.1603H50.3168V45.9274ZM50.3168 50.3931H52.5533V52.626H50.3168V50.3931ZM48.0803 50.3931H50.3168V52.626H48.0803V50.3931ZM45.8438 50.3931H48.0803V52.626H45.8438V50.3931ZM45.8438 48.1603H48.0803V50.3931H45.8438V48.1603ZM45.8438 45.9274H48.0803V48.1603H45.8438V45.9274ZM45.8438 43.6945H48.0803V45.9274H45.8438V43.6945ZM45.8438 41.4616H48.0803V43.6945H45.8438V41.4616ZM45.8438 39.2287H48.0803V41.4616H45.8438V39.2287ZM48.0803 39.2287H50.3168V41.4616H48.0803V39.2287ZM48.0803 41.4616H50.3168V43.6945H48.0803V41.4616ZM48.0803 43.6945H50.3168V45.9274H48.0803V43.6945ZM48.0803 45.9274H50.3168V48.1603H48.0803V45.9274ZM48.0803 48.1603H50.3168V50.3931H48.0803V48.1603ZM50.3168 48.1603H52.5533V50.3931H50.3168V48.1603ZM65.9725 30.2972H68.209V32.5301H65.9725V30.2972ZM63.736 30.2972H65.9725V32.5301H63.736V30.2972ZM61.4995 30.2972H63.736V32.5301H61.4995V30.2972ZM65.9725 50.3931H68.209V52.626H65.9725V50.3931ZM65.9725 48.1603H68.209V50.3931H65.9725V48.1603ZM65.9725 45.9274H68.209V48.1603H65.9725V45.9274ZM63.736 45.9274H65.9725V48.1603H63.736V45.9274ZM61.4995 45.9274H63.736V48.1603H61.4995V45.9274ZM61.4995 48.1603H63.736V50.3931H61.4995V48.1603ZM61.4995 50.3931H63.736V52.626H61.4995V50.3931ZM63.736 50.3931H65.9725V52.626H63.736V50.3931ZM63.736 48.1603H65.9725V50.3931H63.736V48.1603ZM61.4995 43.6945H63.736V45.9274H61.4995V43.6945ZM61.4995 41.4616H63.736V43.6945H61.4995V41.4616ZM59.2629 41.4616H61.4995V43.6945H59.2629V41.4616ZM65.9725 43.6945H68.209V45.9274H65.9725V43.6945ZM65.9725 41.4616H68.209V43.6945H65.9725V41.4616ZM63.736 43.6945H65.9725V45.9274H63.736V43.6945ZM63.736 41.4616H65.9725V43.6945H63.736V41.4616ZM63.736 39.2287H65.9725V41.4616H63.736V39.2287Z" fill="url(#paint2_linear_2446_5644)"/>
<path d="M129.42 19.1328V25.8413H127.098V30.3126H124.778V34.7839H122.457V37.0211H124.778V41.4924H127.098V45.9637H129.42V52.6722H122.457V48.1993H120.135V43.728H117.815V41.4924H115.494V43.728H113.172V48.1993H110.852V52.6722H103.889V45.9637H106.209V41.4924H108.53V37.0211H110.852V34.7839H108.53V30.3126H106.209V25.8413H103.889V19.1328H110.852V23.6041H113.172V28.077H115.494V30.3126H117.815V28.077H120.135V23.6041H122.457V19.1328H129.42Z" fill="url(#paint3_linear_2446_5644)"/>
<path d="M156.419 19.1328V32.5482H154.104V39.2567H149.475V52.6722H140.218V39.2567H135.589V32.5482H133.275V19.1328H140.218V32.5482H142.532V37.0211H147.161V32.5482H149.475V19.1328H156.419Z" fill="url(#paint4_linear_2446_5644)"/>
<path d="M97.7027 25.8413V21.3685H93.0493V19.1328H79.0888V21.3685H74.4369V25.8413H72.1094V45.9637H74.4369V50.4365H79.0888V52.6722H93.0493V50.4365H97.7027V45.9637H100.029V25.8413H97.7027Z" fill="url(#paint5_linear_2446_5644)"/>
<path d="M95.5595 31.1051C96.2242 31.3592 96.5208 31.5733 96.8876 32.4221C97.3195 33.4217 96.9254 35.221 96.8902 35.3732C96.8889 35.3809 96.8876 35.3874 96.885 35.3951C96.8616 35.497 96.6626 36.2644 95.8912 37.0293C95.1042 37.8096 94.2314 38.016 93.1972 37.8832C92.1839 37.7516 91.4138 36.9738 91.2057 36.2373C91.0119 35.5525 91.5881 34.5554 92.2398 34.0679C93.5068 33.1186 93.6954 32.2724 93.8997 31.7642C94.2158 30.9749 94.8662 30.8407 95.5595 31.1051Z" fill="white"/>
<path d="M88.891 24.652V24.652C88.8932 24.6514 88.8955 24.651 88.8978 24.6508C89.6027 24.5872 89.9643 24.6505 90.6699 25.2485C91.5037 25.9541 91.9538 27.7405 91.9915 27.8927C91.9928 27.9004 91.9954 27.9069 91.9967 27.9146C92.0214 28.0165 92.1866 28.7917 91.8367 29.8158C91.4803 30.8605 90.7908 31.4306 89.8035 31.7647C88.837 32.0923 87.799 31.7337 87.2825 31.1649C86.8025 30.6361 86.8728 29.4895 87.2396 28.7659C87.9512 27.3587 87.7417 26.5164 87.6975 25.9721C87.6287 25.1283 88.1486 24.7219 88.8842 24.6532C88.8865 24.653 88.8888 24.6526 88.891 24.652V24.652Z" fill="white"/>
<path d="M83.2453 24.7056C83.2445 24.7056 83.2437 24.7053 83.243 24.7048V24.7048V24.7048C83.2424 24.7043 83.2415 24.7041 83.2407 24.704C82.5312 24.6696 82.1735 24.7463 81.4915 25.3723C80.6876 26.1114 80.3117 27.9145 80.2804 28.0693C80.2791 28.0771 80.2778 28.0835 80.2765 28.0912C80.257 28.1931 80.123 28.9748 80.5146 29.9847C80.9139 31.014 81.6268 31.5544 82.6271 31.8485C83.6066 32.1361 84.6291 31.735 85.1208 31.1468C85.5774 30.5986 85.4603 29.4559 85.0635 28.7478C84.2934 27.3702 84.4678 26.5215 84.4899 25.9746C84.5236 25.1271 83.9853 24.7426 83.2453 24.7056Z" fill="white"/>
<path d="M76.5779 31.1104C75.9132 31.3645 75.6166 31.5787 75.2498 32.4274C74.8179 33.427 75.212 35.2263 75.2472 35.3785C75.2485 35.3862 75.2498 35.3927 75.2524 35.4004C75.2758 35.5023 75.4748 36.2697 76.2462 37.0346C77.0332 37.8149 77.906 38.0213 78.9402 37.8885C79.9522 37.7569 80.7236 36.9791 80.9317 36.2427C81.1255 35.5578 80.5493 34.5607 79.8976 34.0732C78.6306 33.1239 78.4419 32.2777 78.2377 31.7695C77.9216 30.9802 77.2712 30.846 76.5779 31.1104Z" fill="white"/>
<path d="M81.9234 37.8894C82.1173 36.8388 82.5754 36.2818 83.2491 35.9143C85.4969 34.6864 87.8735 35.2849 88.892 35.9079C89.839 36.4883 89.8975 36.8817 90.2214 37.8813C90.7561 39.6226 91.5522 40.1836 92.2156 40.5113C94.2084 41.4967 94.1642 42.268 93.8793 43.8003C93.5008 45.8344 90.972 46.3387 89.5684 46.7669C88.1636 47.1964 84.9675 47.2893 83.4572 47.0391C82.3502 46.8559 81.2302 46.6418 80.2741 46.1181C79.4741 45.6809 78.838 44.7329 78.6117 43.8158C78.3619 42.8046 78.6663 41.8888 78.9408 41.5122C79.4663 40.7899 79.9359 40.8531 80.5993 40.5229C81.6213 40.0149 81.8323 38.1706 81.9234 37.8894Z" fill="white"/>
<path d="M144.021 62.9339V68.1024H142.323V59.3975H143.953V60.8143H144.061C144.262 60.3534 144.576 59.9831 145.004 59.7035C145.436 59.4239 145.979 59.2841 146.634 59.2841C147.229 59.2841 147.749 59.4088 148.196 59.6582C148.643 59.9038 148.989 60.2702 149.235 60.7576C149.482 61.245 149.605 61.8476 149.605 62.5655V68.1024H147.906V62.7695C147.906 62.1386 147.742 61.6455 147.412 61.2904C147.083 60.9314 146.63 60.752 146.055 60.752C145.661 60.752 145.311 60.837 145.004 61.007C144.701 61.177 144.461 61.4264 144.283 61.7551C144.108 62.08 144.021 62.4729 144.021 62.9339Z" fill="#26548B"/>
<path d="M140.727 59.3976L137.563 68.1026H135.746L132.577 59.3976H134.4L136.609 66.0964H136.7L138.904 59.3976H140.727Z" fill="#26548B"/>
<path d="M129.853 68.2099C129.542 68.2099 129.275 68.1004 129.052 67.8812C128.828 67.6583 128.717 67.3901 128.717 67.0765C128.717 66.7667 128.828 66.5022 129.052 66.2831C129.275 66.0601 129.542 65.9487 129.853 65.9487C130.163 65.9487 130.43 66.0601 130.654 66.2831C130.877 66.5022 130.989 66.7667 130.989 67.0765C130.989 67.2843 130.936 67.4751 130.83 67.6489C130.727 67.8189 130.591 67.9549 130.421 68.0569C130.25 68.1589 130.061 68.2099 129.853 68.2099Z" fill="#26548B"/>
<path d="M120.811 62.9339V68.1025H119.113V56.4959H120.788V60.8144H120.896C121.101 60.3459 121.413 59.9737 121.833 59.6979C122.254 59.4221 122.803 59.2842 123.481 59.2842C124.079 59.2842 124.601 59.407 125.048 59.6526C125.499 59.8981 125.847 60.2646 126.093 60.752C126.343 61.2356 126.468 61.8401 126.468 62.5655V68.1025H124.77V62.7696C124.77 62.1311 124.605 61.6361 124.276 61.2847C123.946 60.9296 123.488 60.752 122.901 60.752C122.5 60.752 122.14 60.837 121.822 61.007C121.508 61.1771 121.26 61.4264 121.078 61.7551C120.9 62.08 120.811 62.473 120.811 62.9339Z" fill="#26548B"/>
<path d="M113.712 68.2781C112.868 68.2781 112.141 68.0873 111.531 67.7057C110.925 67.3204 110.46 66.7895 110.134 66.1132C109.808 65.4369 109.645 64.6624 109.645 63.7896C109.645 62.9055 109.812 62.1253 110.145 61.449C110.479 60.769 110.948 60.2381 111.554 59.8565C112.16 59.4749 112.873 59.2841 113.695 59.2841C114.358 59.2841 114.948 59.4069 115.467 59.6525C115.986 59.8943 116.404 60.2344 116.722 60.6726C117.044 61.1109 117.236 61.6228 117.296 62.2085H115.643C115.552 61.8004 115.344 61.449 115.019 61.1543C114.697 60.8596 114.265 60.7123 113.724 60.7123C113.25 60.7123 112.836 60.837 112.48 61.0863C112.128 61.3319 111.853 61.6833 111.656 62.1405C111.459 62.5938 111.361 63.1303 111.361 63.75C111.361 64.3847 111.457 64.9325 111.65 65.3935C111.844 65.8544 112.116 66.2115 112.468 66.4646C112.824 66.7177 113.243 66.8443 113.724 66.8443C114.045 66.8443 114.337 66.7857 114.598 66.6686C114.863 66.5477 115.085 66.3758 115.263 66.1529C115.445 65.93 115.571 65.6617 115.643 65.3481H117.296C117.236 65.9111 117.052 66.4136 116.745 66.8556C116.438 67.2977 116.028 67.6453 115.513 67.8984C115.002 68.1516 114.401 68.2781 113.712 68.2781Z" fill="#26548B"/>
<path d="M106.054 68.1026V59.3976H107.752V68.1026H106.054ZM106.912 58.0545C106.616 58.0545 106.363 57.9562 106.151 57.7598C105.942 57.5595 105.838 57.3215 105.838 57.0457C105.838 56.7661 105.942 56.5281 106.151 56.3316C106.363 56.1314 106.616 56.0312 106.912 56.0312C107.207 56.0312 107.459 56.1314 107.667 56.3316C107.879 56.5281 107.985 56.7661 107.985 57.0457C107.985 57.3215 107.879 57.5595 107.667 57.7598C107.459 57.9562 107.207 58.0545 106.912 58.0545Z" fill="#26548B"/>
<path d="M98.1942 62.9339V68.1024H96.4959V59.3975H98.126V60.8143H98.2339C98.4346 60.3534 98.7489 59.9831 99.1768 59.7035C99.6084 59.4239 100.152 59.2841 100.807 59.2841C101.401 59.2841 101.922 59.4088 102.369 59.6582C102.816 59.9038 103.162 60.2702 103.408 60.7576C103.654 61.245 103.777 61.8476 103.777 62.5655V68.1024H102.079V62.7695C102.079 62.1386 101.914 61.6455 101.585 61.2904C101.256 60.9314 100.803 60.752 100.228 60.752C99.8337 60.752 99.4835 60.837 99.1768 61.007C98.8739 61.177 98.6334 61.4264 98.4555 61.7551C98.2813 62.08 98.1942 62.4729 98.1942 62.9339Z" fill="#26548B"/>
<path d="M90.8682 68.2781C90.0086 68.2781 89.2684 68.0949 88.6474 67.7284C88.0302 67.3581 87.5531 66.8386 87.2161 66.1699C86.8829 65.4974 86.7163 64.7096 86.7163 63.8066C86.7163 62.915 86.8829 62.1291 87.2161 61.449C87.5531 60.769 88.0226 60.2381 88.6247 59.8565C89.2305 59.4749 89.9386 59.2841 90.7489 59.2841C91.2411 59.2841 91.7182 59.3654 92.1802 59.5278C92.6422 59.6903 93.0568 59.9453 93.4241 60.2929C93.7914 60.6405 94.081 61.092 94.2931 61.6474C94.5051 62.199 94.6111 62.8696 94.6111 63.6593V64.26H87.6761V62.9905H92.947C92.947 62.5447 92.8561 62.1499 92.6743 61.8061C92.4926 61.4585 92.237 61.1846 91.9076 60.9843C91.5819 60.7841 91.1995 60.684 90.7603 60.684C90.2832 60.684 89.8666 60.8011 89.5107 61.0353C89.1586 61.2658 88.8859 61.5681 88.6928 61.9421C88.5035 62.3124 88.4088 62.7147 88.4088 63.1492V64.141C88.4088 64.7228 88.5111 65.2178 88.7155 65.6258C88.9238 66.0339 89.2135 66.3456 89.5845 66.5609C89.9556 66.7725 90.3892 66.8783 90.8852 66.8783C91.2071 66.8783 91.5005 66.833 91.7656 66.7423C92.0306 66.6478 92.2597 66.508 92.4528 66.3229C92.6459 66.1378 92.7936 65.9092 92.8958 65.6372L94.5032 65.9262C94.3745 66.3985 94.1435 66.8122 93.8103 67.1673C93.4809 67.5187 93.0662 67.7926 92.5664 67.9891C92.0704 68.1818 91.5043 68.2781 90.8682 68.2781Z" fill="#26548B"/>
<path d="M83.1249 68.1026V59.3976H84.8231V68.1026H83.1249ZM83.9825 58.0545C83.6872 58.0545 83.4335 57.9562 83.2214 57.7598C83.0132 57.5595 82.909 57.3215 82.909 57.0457C82.909 56.7661 83.0132 56.5281 83.2214 56.3316C83.4335 56.1314 83.6872 56.0312 83.9825 56.0312C84.2779 56.0312 84.5297 56.1314 84.7379 56.3316C84.95 56.5281 85.056 56.7661 85.056 57.0457C85.056 57.3215 84.95 57.5595 84.7379 57.7598C84.5297 57.9562 84.2779 58.0545 83.9825 58.0545Z" fill="#26548B"/>
<path d="M81.247 59.3972V60.7574H76.4817V59.3972H81.247ZM77.7596 57.3117H79.4579V65.5462C79.4579 65.8749 79.5071 66.1224 79.6055 66.2886C79.704 66.4511 79.8308 66.5626 79.9861 66.623C80.1451 66.6797 80.3174 66.708 80.5029 66.708C80.6393 66.708 80.7585 66.6986 80.8608 66.6797C80.963 66.6608 81.0425 66.6457 81.0993 66.6343L81.406 68.0342C81.3076 68.0719 81.1675 68.1097 80.9857 68.1475C80.804 68.1891 80.5768 68.2117 80.3042 68.2155C79.8573 68.2231 79.4408 68.1437 79.0546 67.9775C78.6684 67.8113 78.356 67.5543 78.1174 67.2067C77.8789 66.8591 77.7596 66.4228 77.7596 65.8976V57.3117Z" fill="#26548B"/>
<path d="M70.6065 68.2951C70.0536 68.2951 69.5538 68.1931 69.107 67.9891C68.6602 67.7813 68.3062 67.4809 68.0449 67.088C67.7874 66.6951 67.6587 66.2133 67.6587 65.6428C67.6587 65.1517 67.7533 64.7474 67.9427 64.43C68.132 64.1127 68.3876 63.8614 68.7094 63.6763C69.0313 63.4912 69.391 63.3514 69.7886 63.2569C70.1862 63.1625 70.5913 63.0907 71.0041 63.0416C71.5266 62.9811 71.9507 62.932 72.2763 62.8942C72.602 62.8526 72.8386 62.7865 72.9863 62.6958C73.134 62.6052 73.2078 62.4578 73.2078 62.2538V62.2141C73.2078 61.7192 73.0677 61.3357 72.7875 61.0637C72.5111 60.7916 72.0984 60.6556 71.5493 60.6556C70.9776 60.6556 70.527 60.7822 70.1975 61.0353C69.8719 61.2847 69.6466 61.5624 69.5216 61.8684L67.9256 61.5057C68.115 60.9768 68.3914 60.5498 68.7549 60.2249C69.1222 59.8962 69.5444 59.6582 70.0215 59.5108C70.4986 59.3597 71.0003 59.2841 71.5266 59.2841C71.875 59.2841 72.2441 59.3257 72.6342 59.4088C73.028 59.4882 73.3952 59.6355 73.736 59.8509C74.0806 60.0662 74.3627 60.3741 74.5823 60.7746C74.8019 61.1713 74.9117 61.6871 74.9117 62.3218V68.1024H73.2533V66.9123H73.1851C73.0753 67.1314 72.9106 67.3468 72.691 67.5584C72.4713 67.77 72.1892 67.9456 71.8447 68.0854C71.5001 68.2252 71.0874 68.2951 70.6065 68.2951ZM70.9757 66.935C71.4452 66.935 71.8466 66.8424 72.1798 66.6573C72.5168 66.4721 72.7724 66.2303 72.9465 65.9319C73.1245 65.6296 73.2135 65.3066 73.2135 64.9628V63.8406C73.1529 63.9011 73.0355 63.9578 72.8613 64.0107C72.691 64.0598 72.4959 64.1032 72.2763 64.141C72.0567 64.175 71.8428 64.2071 71.6345 64.2373C71.4263 64.2638 71.2521 64.2865 71.112 64.3054C70.7826 64.3469 70.4815 64.4168 70.2089 64.515C69.9401 64.6133 69.7242 64.755 69.5614 64.9401C69.4024 65.1214 69.3229 65.3633 69.3229 65.6655C69.3229 66.0849 69.4781 66.4023 69.7886 66.6176C70.0991 66.8292 70.4948 66.935 70.9757 66.935Z" fill="#26548B"/>
<path d="M61.3224 68.2725C60.6181 68.2725 59.9895 68.093 59.4367 67.7341C58.8876 67.3714 58.456 66.8557 58.1417 66.1869C57.8312 65.5144 57.676 64.7078 57.676 63.767C57.676 62.8262 57.8331 62.0215 58.1474 61.3527C58.4654 60.684 58.9009 60.1721 59.4537 59.8169C60.0066 59.4618 60.6332 59.2842 61.3337 59.2842C61.8752 59.2842 62.3106 59.3749 62.6401 59.5562C62.9733 59.7338 63.2308 59.9416 63.4125 60.1796C63.5981 60.4176 63.7419 60.6273 63.8442 60.8087H63.9464V56.4959H65.6447V68.1025H63.9862V66.748H63.8442C63.7419 66.9331 63.5943 67.1447 63.4012 67.3827C63.2118 67.6208 62.9506 67.8286 62.6174 68.0061C62.2841 68.1837 61.8525 68.2725 61.3224 68.2725ZM61.6972 66.8273C62.1857 66.8273 62.5984 66.6989 62.9354 66.442C63.2762 66.1813 63.5337 65.8205 63.7079 65.3595C63.8858 64.8986 63.9748 64.3621 63.9748 63.75C63.9748 63.1455 63.8877 62.6165 63.7135 62.1632C63.5394 61.7098 63.2838 61.3565 62.9468 61.1034C62.6098 60.8502 62.1933 60.7237 61.6972 60.7237C61.1861 60.7237 60.7601 60.8559 60.4193 61.1204C60.0785 61.3849 59.821 61.7457 59.6468 62.2028C59.4764 62.66 59.3912 63.1757 59.3912 63.75C59.3912 64.3318 59.4783 64.8551 59.6525 65.3198C59.8267 65.7846 60.0842 66.1529 60.425 66.425C60.7695 66.6932 61.1936 66.8273 61.6972 66.8273Z" fill="#26548B"/>
<path d="M52.5627 61.5625V63.036H45.8226V61.5625H52.5627Z" fill="#26548B"/>
<path d="M30.8749 65.8356V64.4187L35.9015 56.4959H37.0204V58.5814H36.3104L32.7151 64.2601V64.3507H39.6047V65.8356H30.8749ZM36.3899 68.1025V65.4049L36.4013 64.7588V56.4959H38.0655V68.1025H36.3899Z" fill="#26548B"/>
<path d="M21.6431 56.4959L24.8806 65.9489H25.0112L28.2487 56.4959H30.1458L25.9598 68.1025H23.9321L19.7461 56.4959H21.6431Z" fill="#26548B"/>
<defs>
<linearGradient id="paint0_linear_2446_5644" x1="22.8106" y1="17.9758" x2="41.3102" y2="43.6494" gradientUnits="userSpaceOnUse">
<stop stop-color="#5588C7"/>
<stop offset="1" stop-color="#11478A"/>
</linearGradient>
<linearGradient id="paint1_linear_2446_5644" x1="2.30465" y1="1.48475" x2="24.6777" y2="14.2065" gradientUnits="userSpaceOnUse">
<stop stop-color="#DE5C8C"/>
<stop offset="1" stop-color="#E06391"/>
</linearGradient>
<linearGradient id="paint2_linear_2446_5644" x1="45.8438" y1="35.9025" x2="156.419" y2="35.9025" gradientUnits="userSpaceOnUse">
<stop stop-color="#285D9F"/>
<stop offset="1" stop-color="#26548B"/>
</linearGradient>
<linearGradient id="paint3_linear_2446_5644" x1="45.8438" y1="35.9025" x2="156.419" y2="35.9025" gradientUnits="userSpaceOnUse">
<stop stop-color="#285D9F"/>
<stop offset="1" stop-color="#26548B"/>
</linearGradient>
<linearGradient id="paint4_linear_2446_5644" x1="45.8438" y1="35.9025" x2="156.419" y2="35.9025" gradientUnits="userSpaceOnUse">
<stop stop-color="#285D9F"/>
<stop offset="1" stop-color="#26548B"/>
</linearGradient>
<linearGradient id="paint5_linear_2446_5644" x1="45.8438" y1="35.9025" x2="156.419" y2="35.9025" gradientUnits="userSpaceOnUse">
<stop stop-color="#285D9F"/>
<stop offset="1" stop-color="#26548B"/>
</linearGradient>
</defs>
</svg>
