<svg width="133" height="66" viewBox="0 0 133 66" fill="none" xmlns="http://www.w3.org/2000/svg">
<path d="M106.06 65.1394V60.1567H107.204V65.1394H106.06ZM108.879 65.1394V61.8274H110.023V65.1394H108.879ZM108.879 61.8371C108.879 61.5636 108.804 61.3454 108.653 61.1825C108.502 61.0197 108.308 60.9383 108.071 60.9383L108.387 60.0004C108.695 60.0004 108.971 60.0818 109.215 60.2446C109.464 60.4009 109.662 60.6191 109.806 60.8992C109.951 61.1728 110.023 61.4854 110.023 61.8371H108.879ZM106.79 61.886C106.79 61.5278 106.859 61.2053 106.997 60.9188C107.141 60.6322 107.332 60.4075 107.568 60.2446C107.812 60.0818 108.084 60.0004 108.387 60.0004L108.071 60.9383C107.815 60.9383 107.605 61.0262 107.44 61.2021C107.282 61.3714 107.204 61.5994 107.204 61.886H106.79Z" fill="#313443"/>
<path d="M100.912 65.139L102.351 60.1562H103.495L101.908 65.139H100.912ZM100.734 65.139L99.1473 60.1562H100.301L101.74 65.139H100.734Z" fill="#313443"/>
<path d="M95.8821 65.218C95.685 65.218 95.5207 65.1561 95.3892 65.0324C95.2644 64.9021 95.2019 64.7393 95.2019 64.5439C95.2019 64.3485 95.2644 64.1856 95.3892 64.0554C95.5207 63.9186 95.685 63.8502 95.8821 63.8502C96.0793 63.8502 96.2436 63.9186 96.375 64.0554C96.513 64.1856 96.582 64.3485 96.582 64.5439C96.582 64.7393 96.513 64.9021 96.375 65.0324C96.2436 65.1561 96.0793 65.218 95.8821 65.218Z" fill="#313443"/>
<path d="M88.5298 65.1391V60.1564H89.6733V65.1391H88.5298ZM91.3491 65.1391V61.8271H92.4926V65.1391H91.3491ZM91.3491 61.8368C91.3491 61.5633 91.2735 61.3451 91.1224 61.1822C90.9712 61.0194 90.7774 60.938 90.5408 60.938L90.8562 60C91.1651 60 91.4411 60.0815 91.6843 60.2443C91.934 60.4006 92.1312 60.6188 92.2757 60.8989C92.4203 61.1725 92.4926 61.4851 92.4926 61.8368H91.3491ZM89.2592 61.8857C89.2592 61.5274 89.3283 61.205 89.4663 60.9184C89.6108 60.6318 89.8014 60.4071 90.038 60.2443C90.2812 60.0815 90.5539 60 90.8562 60L90.5408 60.938C90.2845 60.938 90.0742 61.0259 89.9099 61.2018C89.7521 61.3711 89.6733 61.5991 89.6733 61.8857H89.2592ZM88.5298 65.1391V58.046H89.6733V65.1391H88.5298Z" fill="#313443"/>
<path d="M82.1793 63.2538V62.0423H83.3228V63.2538H82.1793ZM82.1793 62.0521C82.1793 61.6548 82.2647 61.303 82.4356 60.9969C82.6065 60.6908 82.8398 60.4498 83.1355 60.2739C83.4313 60.0915 83.7631 60.0004 84.1312 60.0004V60.9188C83.8814 60.9188 83.6843 61.0197 83.5397 61.2216C83.3951 61.417 83.3228 61.6939 83.3228 62.0521H82.1793ZM84.9592 61.7492C84.9264 61.4691 84.8311 61.2607 84.6733 61.1239C84.5222 60.9871 84.3382 60.9188 84.1213 60.9188V60.0004C84.4565 60.0004 84.7555 60.0655 85.0184 60.1958C85.2812 60.3195 85.4948 60.4986 85.6591 60.7331C85.83 60.9611 85.9384 61.2347 85.9844 61.5538L84.9592 61.7492ZM82.1793 63.244H83.3228C83.3228 63.5958 83.3951 63.8726 83.5397 64.0745C83.6843 64.2699 83.8814 64.3676 84.1312 64.3676V65.2958C83.7631 65.2958 83.4313 65.2078 83.1355 65.032C82.8398 64.8496 82.6065 64.6053 82.4356 64.2992C82.2647 63.9866 82.1793 63.6348 82.1793 63.244ZM84.9592 63.5469L85.9844 63.7423C85.9384 64.0484 85.83 64.3187 85.6591 64.5532C85.4948 64.7877 85.2812 64.9701 85.0184 65.1004C84.7555 65.2306 84.4565 65.2958 84.1213 65.2958V64.3676C84.3382 64.3676 84.5222 64.2992 84.6733 64.1624C84.8311 64.0191 84.9264 63.814 84.9592 63.5469Z" fill="#313443"/>
<path d="M78.1771 65.1389V60.1561H79.3206V65.1389H78.1771ZM78.7489 59.4918C78.5517 59.4918 78.3874 59.4299 78.256 59.3061C78.1311 59.1759 78.0687 59.013 78.0687 58.8176C78.0687 58.6222 78.1311 58.4594 78.256 58.3291C78.3874 58.1923 78.5517 58.1239 78.7489 58.1239C78.946 58.1239 79.1103 58.1923 79.2418 58.3291C79.3798 58.4594 79.4488 58.6222 79.4488 58.8176C79.4488 59.013 79.3798 59.1759 79.2418 59.3061C79.1103 59.4299 78.946 59.4918 78.7489 59.4918Z" fill="#313443"/>
<path d="M71.3564 65.1394V60.1567H72.4999V65.1394H71.3564ZM74.1757 65.1394V61.8274H75.3192V65.1394H74.1757ZM74.1757 61.8371C74.1757 61.5636 74.1002 61.3454 73.949 61.1825C73.7979 61.0197 73.604 60.9383 73.3674 60.9383L73.6828 60.0004C73.9917 60.0004 74.2678 60.0818 74.5109 60.2446C74.7606 60.4009 74.9578 60.6191 75.1024 60.8992C75.247 61.1728 75.3192 61.4854 75.3192 61.8371H74.1757ZM72.0859 61.886C72.0859 61.5278 72.1549 61.2053 72.2929 60.9188C72.4375 60.6322 72.6281 60.4075 72.8647 60.2446C73.1078 60.0818 73.3805 60.0004 73.6828 60.0004L73.3674 60.9383C73.1111 60.9383 72.9008 61.0262 72.7365 61.2021C72.5788 61.3714 72.4999 61.5994 72.4999 61.886H72.0859Z" fill="#313443"/>
<path d="M65.2744 62.9607V62.2377H68.6951V62.9607H65.2744ZM66.7235 65.2958V64.3676H66.7925V65.2958H66.7235ZM64.7717 63.244V62.0521H65.9152V63.244H64.7717ZM67.5516 62.2377V61.8762H68.6951V62.2377H67.5516ZM68.6951 61.886H67.5516C67.5516 61.5994 67.4727 61.3682 67.315 61.1923C67.1639 61.0165 66.9667 60.9285 66.7235 60.9285V60.0004C67.0981 60.0004 67.4333 60.0818 67.729 60.2446C68.0313 60.4075 68.2679 60.6322 68.4388 60.9188C68.6097 61.2053 68.6951 61.5278 68.6951 61.886ZM67.6206 63.5469L68.6458 63.7423C68.5998 64.0484 68.4914 64.3187 68.3205 64.5532C68.1562 64.7877 67.9426 64.9701 67.6798 65.1004C67.4169 65.2306 67.1179 65.2958 66.7827 65.2958V64.3676C66.9996 64.3676 67.1836 64.2992 67.3347 64.1624C67.4924 64.0191 67.5877 63.814 67.6206 63.5469ZM64.7717 62.0521C64.7717 61.6613 64.8571 61.3128 65.028 61.0067C65.1989 60.694 65.4322 60.4498 65.7279 60.2739C66.0236 60.0915 66.3555 60.0004 66.7235 60.0004V60.9285C66.4738 60.9285 66.2766 61.0262 66.1321 61.2216C65.9875 61.417 65.9152 61.6939 65.9152 62.0521H64.7717ZM64.7717 63.244H65.9152C65.9152 63.5958 65.9875 63.8726 66.1321 64.0745C66.2766 64.2699 66.4738 64.3676 66.7235 64.3676V65.2958C66.3555 65.2958 66.0236 65.2078 65.7279 65.032C65.4322 64.8496 65.1989 64.6053 65.028 64.2992C64.8571 63.9866 64.7717 63.6348 64.7717 63.244Z" fill="#313443"/>
<path d="M60.869 65.1389V60.1561H62.0125V65.1389H60.869ZM61.4407 59.4918C61.2436 59.4918 61.0793 59.4299 60.9478 59.3061C60.823 59.1759 60.7605 59.013 60.7605 58.8176C60.7605 58.6222 60.823 58.4594 60.9478 58.3291C61.0793 58.1923 61.2436 58.1239 61.4407 58.1239C61.6379 58.1239 61.8022 58.1923 61.9336 58.3291C62.0716 58.4594 62.1406 58.6222 62.1406 58.8176C62.1406 59.013 62.0716 59.1759 61.9336 59.3061C61.8022 59.4299 61.6379 59.4918 61.4407 59.4918Z" fill="#313443"/>
<path d="M55.6437 63.517V58.1923L56.7872 58.2021V63.517H55.6437ZM55.0719 61.0354V60.1561H58.0293V61.0354H55.0719ZM55.6437 63.5073H56.7872C56.7872 63.6831 56.8135 63.8362 56.866 63.9665C56.9186 64.0967 56.9909 64.1977 57.0829 64.2693C57.1815 64.3345 57.2965 64.367 57.4279 64.367L57.2998 65.2854C56.7806 65.2854 56.3731 65.1291 56.0774 64.8165C55.7882 64.5038 55.6437 64.0674 55.6437 63.5073ZM57.8715 64.2009L58.3053 64.9532C58.1476 65.0705 57.9833 65.1551 57.8124 65.2073C57.6481 65.2594 57.4772 65.2854 57.2998 65.2854L57.4279 64.367C57.5134 64.367 57.5922 64.3507 57.6645 64.3182C57.7368 64.2856 57.8058 64.2465 57.8715 64.2009Z" fill="#313443"/>
<path d="M51.4114 65.1394V61.8274H52.5549V65.1394H51.4114ZM50.2285 65.286L50.3763 64.4067C50.5866 64.4067 50.7673 64.3546 50.9185 64.2504C51.0762 64.1396 51.1978 63.9833 51.2832 63.7814C51.3687 63.5795 51.4114 63.3417 51.4114 63.0682L51.924 63.0193C51.924 63.4557 51.8484 63.8465 51.6973 64.1917C51.5461 64.5304 51.3424 64.7975 51.0861 64.9929C50.8364 65.1883 50.5505 65.286 50.2285 65.286ZM50.2285 65.286C49.9196 65.286 49.6403 65.2176 49.3905 65.0808C49.1474 64.944 48.9535 64.7584 48.8089 64.5239C48.6709 64.2829 48.6019 64.0126 48.6019 63.713L49.6468 63.6642C49.6468 63.8791 49.7191 64.0582 49.8637 64.2015C50.0149 64.3383 50.1857 64.4067 50.3763 64.4067L50.2285 65.286ZM48.6019 63.713C48.6019 63.4134 48.6808 63.1463 48.8385 62.9119C49.0028 62.6774 49.223 62.4917 49.499 62.355C49.775 62.2117 50.0839 62.14 50.4256 62.14L50.5242 62.9216C50.2679 62.9216 50.0576 62.99 49.8933 63.1268C49.729 63.2636 49.6468 63.4427 49.6468 63.6642L48.6019 63.713ZM50.5242 62.9216L50.4256 62.14H51.8254V62.9216H50.5242ZM51.4114 63.0682V61.8762H51.924V63.0193L51.4114 63.0682ZM52.5549 61.886H51.4114C51.4114 61.5994 51.3325 61.3682 51.1748 61.1923C51.0237 61.0165 50.8265 60.9285 50.5833 60.9285V60.0004C50.9579 60.0004 51.2931 60.0818 51.5888 60.2446C51.8911 60.4075 52.1277 60.6322 52.2986 60.9188C52.4695 61.2053 52.5549 61.5278 52.5549 61.886ZM49.7553 61.7492L48.7202 61.5538C48.7728 61.2412 48.8812 60.9709 49.0455 60.7429C49.2164 60.5084 49.4333 60.326 49.6961 60.1958C49.9656 60.0655 50.2613 60.0004 50.5833 60.0004V60.9285C50.373 60.9285 50.189 60.9969 50.0313 61.1337C49.8801 61.2705 49.7881 61.4756 49.7553 61.7492Z" fill="#313443"/>
<path d="M45.8421 60.1657H44.6986V58.2019H45.8421V60.1657ZM44.6986 65.1386V60.1559H45.8421V65.1386H44.6986ZM41.8792 63.4582V61.8363H43.0227V63.4582H41.8792ZM43.0227 61.8363H41.8792C41.8792 61.4846 41.9515 61.172 42.0961 60.8984C42.2407 60.6183 42.4345 60.4001 42.6777 60.2438C42.9274 60.081 43.2067 59.9996 43.5156 59.9996L43.8311 60.9375C43.5945 60.9375 43.4006 61.0189 43.2495 61.1817C43.0983 61.3446 43.0227 61.5628 43.0227 61.8363ZM45.1126 61.8852H44.6986C44.6986 61.5986 44.6164 61.3706 44.4521 61.2013C44.2944 61.0254 44.0874 60.9375 43.8311 60.9375L43.5156 59.9996C43.8179 59.9996 44.0907 60.081 44.3338 60.2438C44.577 60.4067 44.7676 60.6314 44.9056 60.918C45.0436 61.2045 45.1126 61.527 45.1126 61.8852ZM43.0227 63.4582C43.0227 63.7252 43.0983 63.9402 43.2495 64.103C43.4006 64.2658 43.5945 64.3473 43.8311 64.3473L43.5156 65.2852C43.2067 65.2852 42.9274 65.207 42.6777 65.0507C42.4345 64.8879 42.2407 64.6697 42.0961 64.3961C41.9515 64.116 41.8792 63.8034 41.8792 63.4582H43.0227ZM45.1126 63.4093C45.1126 63.7676 45.0436 64.09 44.9056 64.3766C44.7676 64.6566 44.577 64.8781 44.3338 65.0409C44.0907 65.2038 43.8179 65.2852 43.5156 65.2852L43.8311 64.3473C44.0874 64.3473 44.2944 64.2626 44.4521 64.0932C44.6164 63.9174 44.6986 63.6894 44.6986 63.4093H45.1126Z" fill="#313443"/>
<path d="M27.8087 62.5147L29.7123 57.146H31.3194L29.4159 62.5147H27.8087ZM27.8087 63.7799V62.5147H33.0178V63.7799H27.8087ZM30.7381 65.2959V60.7479H32.2313V65.2959H30.7381Z" fill="#DE5C8C"/>
<path d="M22.135 65.2959L24.1526 57.146H25.7028L23.6852 65.2959H22.135ZM22.1123 65.2959L20.0947 57.146H21.6563L23.6624 65.2959H22.1123Z" fill="#DE5C8C"/>
<path d="M35.784 61.6818V60.7585H39.0098V61.6818H35.784Z" fill="#313443"/>
<path d="M112.275 31.7539H114.298V33.8365H112.275V31.7539ZM114.298 31.7539H116.321V33.8365H114.298V31.7539ZM114.298 33.8365H116.321V35.9191H114.298V33.8365ZM116.321 33.8365H118.344V35.9191H116.321V33.8365ZM116.321 35.9191H118.344V38.0017H116.321V35.9191ZM116.321 38.0017H118.344V40.0843H116.321V38.0017ZM116.321 31.7539H118.344V33.8365H116.321V31.7539ZM112.275 33.8365H114.298V35.9191H112.275V33.8365ZM112.275 35.9191H114.298V38.0017H112.275V35.9191ZM112.275 38.0017H114.298V40.0843H112.275V38.0017ZM112.275 40.0843H114.298V42.1668H112.275V40.0843ZM114.298 40.0843H116.321V42.1668H114.298V40.0843ZM114.298 38.0017H116.321V40.0843H114.298V38.0017ZM114.298 35.9191H116.321V38.0017H114.298V35.9191ZM116.321 40.0843H118.344V42.1668H116.321V40.0843ZM116.321 42.1668H118.344V44.2494H116.321V42.1668ZM114.298 42.1668H116.321V44.2494H114.298V42.1668ZM112.275 42.1668H114.298V44.2494H112.275V42.1668ZM112.275 44.2494H114.298V46.332H112.275V44.2494ZM114.298 44.2494H116.321V46.332H114.298V44.2494ZM116.321 44.2494H118.344V46.332H116.321V44.2494ZM118.344 44.2494H120.367V46.332H118.344V44.2494ZM130.482 31.7539H132.505V33.8365H130.482V31.7539ZM128.459 31.7539H130.482V33.8365H128.459V31.7539ZM128.459 33.8365H130.482V35.9191H128.459V33.8365ZM126.436 33.8365H128.459V35.9191H126.436V33.8365ZM126.436 31.7539H128.459V33.8365H126.436V31.7539ZM126.436 35.9191H128.459V38.0017H126.436V35.9191ZM126.436 38.0017H128.459V40.0843H126.436V38.0017ZM126.436 40.0843H128.459V42.1668H126.436V40.0843ZM126.436 42.1668H128.459V44.2494H126.436V42.1668ZM128.459 42.1668H130.482V44.2494H128.459V42.1668ZM128.459 44.2494H130.482V46.332H128.459V44.2494ZM130.482 42.1668H132.505V44.2494H130.482V42.1668ZM130.482 40.0843H132.505V42.1668H130.482V40.0843ZM130.482 38.0017H132.505V40.0843H130.482V38.0017ZM130.482 35.9191H132.505V38.0017H130.482V35.9191ZM130.482 33.8365H132.505V35.9191H130.482V33.8365ZM128.459 38.0017H130.482V40.0843H128.459V38.0017ZM128.459 40.0843H130.482V42.1668H128.459V40.0843ZM128.459 35.9191H130.482V38.0017H128.459V35.9191ZM130.482 44.2494H132.505V46.332H130.482V44.2494ZM128.459 46.332H130.482V48.4146H128.459V46.332ZM126.436 44.2494H128.459V46.332H126.436V44.2494ZM126.436 48.4146H128.459V50.4972H126.436V48.4146ZM124.413 48.4146H126.436V50.4972H124.413V48.4146ZM124.413 50.4972H126.436V53.7555H124.413V50.4972ZM122.39 50.4972H124.413V53.7555H122.39V50.4972ZM122.39 53.7555H124.413V56.602H122.39V53.7555ZM120.367 53.7555H122.39V56.602H120.367V53.7555ZM120.367 56.602H122.39V59.954H120.367V56.602ZM118.344 56.602H120.367V59.954H118.344V56.602ZM118.344 59.954H120.367V62.9739H118.344V59.954ZM116.321 59.954H118.344V62.9739H116.321V59.954ZM116.321 62.9739H118.344V65.1536H116.321V62.9739ZM114.298 62.9739H116.321V65.1536H114.298V62.9739ZM112.275 62.9739H114.298V65.1536H112.275V62.9739ZM112.275 59.954H114.298V62.9739H112.275V59.954ZM114.298 59.954H116.321V62.9739H114.298V59.954ZM114.298 56.602H116.321V59.954H114.298V56.602ZM116.321 56.602H118.344V59.954H116.321V56.602ZM116.321 53.7555H118.344V56.602H116.321V53.7555ZM118.344 53.7555H120.367V56.602H118.344V53.7555ZM118.344 50.4972H120.367V53.7555H118.344V50.4972ZM118.344 48.4146H120.367V50.4972H118.344V48.4146ZM116.321 48.4146H118.344V50.4972H116.321V48.4146ZM116.321 46.332H118.344V48.4146H116.321V46.332ZM114.298 46.332H116.321V48.4146H114.298V46.332ZM118.344 46.332H120.367V48.4146H118.344V46.332ZM120.367 48.4146H122.39V50.4972H120.367V48.4146ZM120.367 50.4972H122.39V53.7555H120.367V50.4972ZM122.39 48.4146H124.413V50.4972H122.39V48.4146ZM124.413 46.332H126.436V48.4146H124.413V46.332ZM126.436 46.332H128.459V48.4146H126.436V46.332ZM122.39 46.332H124.413V48.4146H122.39V46.332ZM124.413 44.2494H126.436V46.332H124.413V44.2494ZM120.367 46.332H122.39V48.4146H120.367V46.332Z" fill="url(#paint0_linear_1687_7687)"/>
<path d="M87.4579 31.7539H89.4809V33.8365H87.4579V31.7539ZM89.4809 31.7539H91.5039V33.8365H89.4809V31.7539ZM91.5039 31.7539H93.5269V33.8365H91.5039V31.7539ZM91.5039 33.8365H93.5269V35.9191H91.5039V33.8365ZM89.4809 33.8365H91.5039V35.9191H89.4809V33.8365ZM87.4579 33.8365H89.4809V35.9191H87.4579V33.8365ZM87.4579 35.9191H89.4809V38.0017H87.4579V35.9191ZM89.4809 35.9191H91.5039V38.0017H89.4809V35.9191ZM91.5039 35.9191H93.5269V38.0017H91.5039V35.9191ZM93.5269 35.9191H95.5499V38.0017H93.5269V35.9191ZM93.5269 38.0017H95.5499V40.0843H93.5269V38.0017ZM91.5039 38.0017H93.5269V40.0843H91.5039V38.0017ZM89.4809 38.0017H91.5039V40.0843H89.4809V38.0017ZM95.5499 38.0017H97.5729V40.0843H95.5499V38.0017ZM97.5729 38.0017H99.5959V40.0843H97.5729V38.0017ZM99.5959 38.0017H101.619V40.0843H99.5959V38.0017ZM99.5959 40.0843H101.619V42.1668H99.5959V40.0843ZM101.619 40.0843H103.642V42.1668H101.619V40.0843ZM103.642 38.0017H105.665V40.0843H103.642V38.0017ZM101.619 38.0017H103.642V40.0843H101.619V38.0017ZM101.619 35.9191H103.642V38.0017H101.619V35.9191ZM99.5959 35.9191H101.619V38.0017H99.5959V35.9191ZM103.642 35.9191H105.665V38.0017H103.642V35.9191ZM105.665 35.9191H107.688V38.0017H105.665V35.9191ZM105.665 33.8365H107.688V35.9191H105.665V33.8365ZM105.665 31.7539H107.688V33.8365H105.665V31.7539ZM103.642 31.7539H105.665V33.8365H103.642V31.7539ZM101.619 31.7539H103.642V33.8365H101.619V31.7539ZM101.619 33.8365H103.642V35.9191H101.619V33.8365ZM103.642 33.8365H105.665V35.9191H103.642V33.8365ZM91.5039 40.0843H93.5269V42.1668H91.5039V40.0843ZM93.5269 40.0843H95.5499V42.1668H93.5269V40.0843ZM95.5499 40.0843H97.5729V42.1668H95.5499V40.0843ZM97.5729 40.0843H99.5959V42.1668H97.5729V40.0843ZM99.5959 42.1668H101.619V44.2494H99.5959V42.1668ZM97.5729 42.1668H99.5959V44.2494H97.5729V42.1668ZM95.5499 42.1668H97.5729V44.2494H95.5499V42.1668ZM93.5269 42.1668H95.5499V44.2494H93.5269V42.1668ZM93.5269 44.2494H95.5499V46.332H93.5269V44.2494ZM91.5039 44.2494H93.5269V46.332H91.5039V44.2494ZM95.5499 44.2494H97.5729V46.332H95.5499V44.2494ZM97.5729 44.2494H99.5959V46.332H97.5729V44.2494ZM99.5959 46.332H101.619V48.4146H99.5959V46.332ZM101.619 46.332H103.642V48.4146H101.619V46.332ZM101.619 44.2494H103.642V46.332H101.619V44.2494ZM99.5959 44.2494H101.619V46.332H99.5959V44.2494ZM97.5729 46.332H99.5959V48.4146H97.5729V46.332ZM99.5959 48.4146H101.619V50.4972H99.5959V48.4146ZM101.619 48.4146H103.642V50.4972H101.619V48.4146ZM103.642 46.332H105.665V48.4146H103.642V46.332ZM105.665 52.5798H107.688V54.6624H105.665V52.5798ZM105.665 50.4972H107.688V52.5798H105.665V50.4972ZM103.642 50.4972H105.665V52.5798H103.642V50.4972ZM103.642 48.4146H105.665V50.4972H103.642V48.4146ZM105.665 48.4146H107.688V50.4972H105.665V48.4146ZM103.642 52.5798H105.665V54.6624H103.642V52.5798ZM101.619 52.5798H103.642V54.6624H101.619V52.5798ZM101.619 50.4972H103.642V52.5798H101.619V50.4972ZM95.5499 46.332H97.5729V48.4146H95.5499V46.332ZM93.5269 46.332H95.5499V48.4146H93.5269V46.332ZM91.5039 46.332H93.5269V48.4146H91.5039V46.332ZM89.4809 46.332H91.5039V48.4146H89.4809V46.332ZM89.4809 48.4146H91.5039V50.4972H89.4809V48.4146ZM91.5039 48.4146H93.5269V50.4972H91.5039V48.4146ZM93.5269 48.4146H95.5499V50.4972H93.5269V48.4146ZM87.4579 48.4146H89.4809V50.4972H87.4579V48.4146ZM87.4579 50.4972H89.4809V52.5798H87.4579V50.4972ZM87.4579 52.5798H89.4809V54.6624H87.4579V52.5798ZM89.4809 52.5798H91.5039V54.6624H89.4809V52.5798ZM91.5039 52.5798H93.5269V54.6624H91.5039V52.5798ZM91.5039 50.4972H93.5269V52.5798H91.5039V50.4972ZM89.4809 50.4972H91.5039V52.5798H89.4809V50.4972Z" fill="url(#paint1_linear_1687_7687)"/>
<path d="M66.6871 31.7539H68.71V33.8365H66.6871V31.7539ZM68.71 31.7539H70.7331V33.8365H68.71V31.7539ZM70.7331 31.7539H72.756V33.8365H70.7331V31.7539ZM72.756 31.7539H74.779V33.8365H72.756V31.7539ZM74.779 31.7539H76.802V33.8365H74.779V31.7539ZM76.802 31.7539H78.825V33.8365H76.802V31.7539ZM78.825 33.8365H80.848V35.9191H78.825V33.8365ZM76.802 33.8365H78.825V35.9191H76.802V33.8365ZM74.779 33.8365H76.802V35.9191H74.779V33.8365ZM72.756 33.8365H74.779V35.9191H72.756V33.8365ZM70.7331 33.8365H72.756V35.9191H70.7331V33.8365ZM68.71 33.8365H70.7331V35.9191H68.71V33.8365ZM66.6871 33.8365H68.71V35.9191H66.6871V33.8365ZM64.6641 33.8365H66.6871V35.9191H64.6641V33.8365ZM64.6641 35.9191H66.6871V38.0017H64.6641V35.9191ZM66.6871 35.9191H68.71V38.0017H66.6871V35.9191ZM62.6411 35.9191H64.6641V38.0017H62.6411V35.9191ZM62.6411 38.0017H64.6641V40.0843H62.6411V38.0017ZM62.6411 40.0843H64.6641V42.1668H62.6411V40.0843ZM64.6641 40.0843H66.6871V42.1668H64.6641V40.0843ZM66.6871 40.0843H68.71V42.1668H66.6871V40.0843ZM66.6871 38.0017H68.71V40.0843H66.6871V38.0017ZM64.6641 38.0017H66.6871V40.0843H64.6641V38.0017ZM64.6641 42.1668H66.6871V44.2494H64.6641V42.1668ZM64.6641 44.2494H66.6871V46.332H64.6641V44.2494ZM64.6641 46.332H66.6871V48.4146H64.6641V46.332ZM62.6411 46.332H64.6641V48.4146H62.6411V46.332ZM62.6411 48.4146H64.6641V50.4972H62.6411V48.4146ZM62.6411 44.2494H64.6641V46.332H62.6411V44.2494ZM62.6411 42.1668H64.6641V44.2494H62.6411V42.1668ZM66.6871 42.1668H68.71V44.2494H66.6871V42.1668ZM66.6871 44.2494H68.71V46.332H66.6871V44.2494ZM66.6871 46.332H68.71V48.4146H66.6871V46.332ZM66.6871 48.4146H68.71V50.4972H66.6871V48.4146ZM64.6641 48.4146H66.6871V50.4972H64.6641V48.4146ZM64.6641 50.4972H66.6871V52.5798H64.6641V50.4972ZM66.6871 50.4972H68.71V52.5798H66.6871V50.4972ZM68.71 50.4972H70.7331V52.5798H68.71V50.4972ZM68.71 48.4146H70.7331V50.4972H68.71V48.4146ZM66.6871 52.5798H68.71V54.6624H66.6871V52.5798ZM68.71 52.5798H70.7331V54.6624H68.71V52.5798ZM70.7331 52.5798H72.756V54.6624H70.7331V52.5798ZM72.756 52.5798H74.779V54.6624H72.756V52.5798ZM74.779 52.5798H76.802V54.6624H74.779V52.5798ZM76.802 52.5798H78.825V54.6624H76.802V52.5798ZM74.779 50.4972H76.802V52.5798H74.779V50.4972ZM72.756 50.4972H74.779V52.5798H72.756V50.4972ZM70.7331 50.4972H72.756V52.5798H70.7331V50.4972ZM76.802 50.4972H78.825V52.5798H76.802V50.4972ZM78.825 50.4972H80.848V52.5798H78.825V50.4972ZM76.802 48.4146H78.825V50.4972H76.802V48.4146ZM74.779 48.4146H76.802V50.4972H74.779V48.4146ZM78.825 48.4146H80.848V50.4972H78.825V48.4146ZM80.848 48.4146H82.871V50.4972H80.848V48.4146ZM80.848 46.332H82.871V48.4146H80.848V46.332ZM78.825 44.2494H80.848V46.332H78.825V44.2494ZM78.825 46.332H80.848V48.4146H78.825V46.332ZM76.802 46.332H78.825V48.4146H76.802V46.332ZM80.848 44.2494H82.871V46.332H80.848V44.2494ZM80.848 42.1668H82.871V44.2494H80.848V42.1668ZM78.825 42.1668H80.848V44.2494H78.825V42.1668ZM78.825 40.0843H80.848V42.1668H78.825V40.0843ZM78.825 38.0017H80.848V40.0843H78.825V38.0017ZM80.848 38.0017H82.871V40.0843H80.848V38.0017ZM80.848 35.9191H82.871V38.0017H80.848V35.9191ZM80.848 40.0843H82.871V42.1668H80.848V40.0843ZM76.802 42.1668H78.825V44.2494H76.802V42.1668ZM76.802 44.2494H78.825V46.332H76.802V44.2494ZM76.802 40.0843H78.825V42.1668H76.802V40.0843ZM76.802 38.0017H78.825V40.0843H76.802V38.0017ZM76.802 35.9191H78.825V38.0017H76.802V35.9191ZM74.779 35.9191H76.802V38.0017H74.779V35.9191ZM78.825 35.9191H80.848V38.0017H78.825V35.9191ZM68.71 35.9191H70.7331V38.0017H68.71V35.9191ZM70.7331 35.9191H72.756V38.0017H70.7331V35.9191ZM72.756 35.9191H74.779V38.0017H72.756V35.9191ZM70.7331 48.4146H72.756V50.4972H70.7331V48.4146ZM72.756 48.4146H74.779V50.4972H72.756V48.4146Z" fill="url(#paint2_linear_1687_7687)"/>
<path d="M45.925 31.7539H47.948V33.8365H45.925V31.7539ZM43.902 33.8365H45.925V35.9191H43.902V33.8365ZM43.902 35.9191H45.925V38.0017H43.902V35.9191ZM41.879 33.8365H43.902V35.9191H41.879V33.8365ZM41.879 31.7539H43.902V33.8365H41.879V31.7539ZM43.902 31.7539H45.925V33.8365H43.902V31.7539ZM43.902 38.0017H45.925V40.0843H43.902V38.0017ZM41.879 38.0017H43.902V40.0843H41.879V38.0017ZM41.879 40.0843H43.902V42.1668H41.879V40.0843ZM41.879 35.9191H43.902V38.0017H41.879V35.9191ZM41.879 42.1668H43.902V44.2494H41.879V42.1668ZM41.879 44.2494H43.902V46.332H41.879V44.2494ZM41.879 46.332H43.902V48.4146H41.879V46.332ZM41.879 48.4146H43.902V50.4972H41.879V48.4146ZM41.879 50.4972H43.902V52.5798H41.879V50.4972ZM43.902 50.4972H45.925V52.5798H43.902V50.4972ZM45.925 50.4972H47.948V52.5798H45.925V50.4972ZM45.925 52.5798H47.948V54.6624H45.925V52.5798ZM43.902 52.5798H45.925V54.6624H43.902V52.5798ZM41.879 52.5798H43.902V54.6624H41.879V52.5798ZM45.925 48.4146H47.948V50.4972H45.925V48.4146ZM45.925 46.332H47.948V48.4146H45.925V46.332ZM45.925 44.2494H47.948V46.332H45.925V44.2494ZM45.925 42.1668H47.948V44.2494H45.925V42.1668ZM45.925 40.0843H47.948V42.1668H45.925V40.0843ZM45.925 38.0017H47.948V40.0843H45.925V38.0017ZM45.925 35.9191H47.948V38.0017H45.925V35.9191ZM45.925 33.8365H47.948V35.9191H45.925V33.8365ZM43.902 40.0843H45.925V42.1668H43.902V40.0843ZM43.902 44.2494H45.925V46.332H43.902V44.2494ZM43.902 46.332H45.925V48.4146H43.902V46.332ZM43.902 48.4146H45.925V50.4972H43.902V48.4146ZM43.902 42.1668H45.925V44.2494H43.902V42.1668ZM56.0399 35.9191H58.0629V38.0017H56.0399V35.9191ZM56.0399 33.8365H58.0629V35.9191H56.0399V33.8365ZM54.0169 33.8365H56.0399V35.9191H54.0169V33.8365ZM51.994 33.8365H54.0169V35.9191H51.994V33.8365ZM58.0629 33.8365H60.0859V35.9191H58.0629V33.8365ZM56.0399 31.7539H58.0629V33.8365H56.0399V31.7539ZM54.0169 31.7539H56.0399V33.8365H54.0169V31.7539ZM51.994 31.7539H54.0169V33.8365H51.994V31.7539ZM49.971 31.7539H51.994V33.8365H49.971V31.7539ZM49.971 33.8365H51.994V35.9191H49.971V33.8365ZM47.948 33.8365H49.971V35.9191H47.948V33.8365ZM47.948 35.9191H49.971V38.0017H47.948V35.9191ZM54.0169 35.9191H56.0399V38.0017H54.0169V35.9191ZM54.0169 38.0017H56.0399V40.0843H54.0169V38.0017ZM51.994 35.9191H54.0169V38.0017H51.994V35.9191ZM49.971 35.9191H51.994V38.0017H49.971V35.9191ZM47.948 38.0017H49.971V40.0843H47.948V38.0017Z" fill="url(#paint3_linear_1687_7687)"/>
<path d="M10.3976 65.2961H0.552734L0.561097 36.627H2.99903V34.2092H5.44704V31.7915H7.89505V29.3737H10.3531V26.9559H12.781V29.3737H24.9908V26.9458H27.4234V14.845H29.8666V12.4206H32.3135V10.005H34.7604V7.58315H37.2036V10.005H39.6361V31.7951H37.2034V34.2134H34.7515V39.0498H32.3092V41.4763H12.7729V62.9536H10.3976V65.2961Z" fill="url(#paint4_linear_1687_7687)"/>
<path d="M0.552734 7.54224V31.7712H3.00393V29.3597H5.40964V26.954H7.87264V24.5025H10.3242V22.0968H12.7573V12.4162H27.4212V10.009H29.8422V7.58795H32.3045V5.15316H34.7668V2.74589H29.8422V0.296875H7.8396V2.72767H5.40857V5.12706H2.99327V7.54224H0.552734Z" fill="url(#paint5_linear_1687_7687)"/>
<defs>
<linearGradient id="paint0_linear_1687_7687" x1="125.534" y1="61.3476" x2="24.3846" y2="19.8104" gradientUnits="userSpaceOnUse">
<stop stop-color="#1B4E8A"/>
<stop offset="1" stop-color="#3466A5"/>
</linearGradient>
<linearGradient id="paint1_linear_1687_7687" x1="125.534" y1="61.3476" x2="24.3846" y2="19.8104" gradientUnits="userSpaceOnUse">
<stop stop-color="#1B4E8A"/>
<stop offset="1" stop-color="#3466A5"/>
</linearGradient>
<linearGradient id="paint2_linear_1687_7687" x1="125.534" y1="61.3476" x2="24.3846" y2="19.8104" gradientUnits="userSpaceOnUse">
<stop stop-color="#1B4E8A"/>
<stop offset="1" stop-color="#3466A5"/>
</linearGradient>
<linearGradient id="paint3_linear_1687_7687" x1="125.534" y1="61.3476" x2="24.3846" y2="19.8104" gradientUnits="userSpaceOnUse">
<stop stop-color="#1B4E8A"/>
<stop offset="1" stop-color="#3466A5"/>
</linearGradient>
<linearGradient id="paint4_linear_1687_7687" x1="21.367" y1="17.1975" x2="39.0656" y2="41.6921" gradientUnits="userSpaceOnUse">
<stop stop-color="#5588C7"/>
<stop offset="1" stop-color="#11478A"/>
</linearGradient>
<linearGradient id="paint5_linear_1687_7687" x1="1.81967" y1="1.43419" x2="23.1754" y2="13.5442" gradientUnits="userSpaceOnUse">
<stop stop-color="#DE5C8C"/>
<stop offset="1" stop-color="#E06391"/>
</linearGradient>
</defs>
</svg>
